<svg width="32" height="32" viewBox="0 0 32 32" fill="none" xmlns="http://www.w3.org/2000/svg">
<g clip-path="url(#clip0_2_820)">
<path d="M11.7501 7.49977C13.8181 7.49977 15.5 5.81782 15.5 3.74988C15.5 1.68195 13.8181 0 11.7501 0C9.68219 0 8.00024 1.68195 8.00024 3.74988C8.00024 5.81782 9.68219 7.49977 11.7501 7.49977ZM11.7501 0.999969C13.2661 0.999969 14.5 2.23393 14.5 3.74988C14.5 5.26584 13.2661 6.4998 11.7501 6.4998C10.2342 6.4998 9.00021 5.26584 9.00021 3.74988C9.00021 2.23393 10.2342 0.999969 11.7501 0.999969Z" fill="black"/>
<path d="M20.7499 7.49977C22.8178 7.49977 24.4997 5.81782 24.4997 3.74988C24.4997 1.68195 22.8178 0 20.7499 0C18.6819 0 17 1.68195 17 3.74988C17 5.81782 18.6819 7.49977 20.7499 7.49977ZM20.7499 0.999969C22.2658 0.999969 23.4998 2.23393 23.4998 3.74988C23.4998 5.26584 22.2658 6.4998 20.7499 6.4998C19.2339 6.4998 17.9999 5.26584 17.9999 3.74988C17.9999 2.23393 19.2339 0.999969 20.7499 0.999969Z" fill="black"/>
<path d="M31.755 9.56972C31.6035 9.47972 31.415 9.47772 31.2605 9.56122L26.4997 12.1576V10.9997C26.4997 9.62122 25.3782 8.49976 23.9997 8.49976H9.00021C7.97774 8.49976 7.09927 9.11824 6.71228 9.99971H3.00039C3.00039 9.17273 2.32742 8.49976 1.50044 8.49976C0.673467 8.49976 0.000488281 9.17273 0.000488281 9.99971V13.9996C0.000488281 14.8266 0.673467 15.4995 1.50044 15.4995C2.32742 15.4995 3.00039 14.8266 3.00039 13.9996H6.50029V18.9994C6.50029 20.3779 7.62175 21.4993 9.00021 21.4993H11.7256L8.02724 29.6866C7.65275 30.4761 7.98424 31.4365 8.76622 31.828C8.99421 31.9425 9.2402 31.9995 9.48769 31.9995C9.66469 31.9995 9.84318 31.97 10.0167 31.9105C10.4307 31.768 10.7627 31.4715 10.9551 31.0681L14.5 23.2998V30.4991C14.5 31.326 15.173 31.999 16 31.999C16.827 31.999 17.4999 31.326 17.4999 30.4991V23.2998L21.0488 31.0765C21.2373 31.472 21.5693 31.7685 21.9833 31.911C22.1568 31.9705 22.3343 32 22.5123 32C22.7598 32 23.0058 31.9425 23.2343 31.8285C24.0157 31.437 24.3477 30.4766 23.9767 29.6951L20.2744 21.4993H23.9997C25.3782 21.4993 26.4997 20.3779 26.4997 18.9994V17.8415L31.26 20.4384C31.335 20.4789 31.417 20.4994 31.4995 20.4994C31.588 20.4994 31.676 20.4759 31.755 20.4294C31.906 20.3394 31.9995 20.1759 31.9995 19.9994V9.99971C31.9995 9.82321 31.906 9.65972 31.755 9.56972ZM2.00043 13.9996C2.00043 14.2756 1.77643 14.4996 1.50044 14.4996C1.22445 14.4996 1.00046 14.2756 1.00046 13.9996V9.99971C1.00046 9.72372 1.22445 9.49972 1.50044 9.49972C1.77643 9.49972 2.00043 9.72372 2.00043 9.99971V10.4997V13.4996V13.9996ZM3.00039 12.9996V10.9997H6.50029V12.9996H3.00039ZM10.0492 30.6456C9.97668 30.7971 9.84968 30.9106 9.69119 30.9651C9.53369 31.0196 9.3637 31.0086 9.2132 30.9341C8.91421 30.7846 8.78721 30.4176 8.93421 30.1076L12.8231 21.4993H14.2225L10.0492 30.6456ZM16 30.9991C15.724 30.9991 15.5 30.7751 15.5 30.4991V21.4993H16.5V30.4991C16.5 30.7751 16.276 30.9991 16 30.9991ZM23.0698 30.1151C23.2128 30.4171 23.0858 30.7841 22.7878 30.9336C22.6373 31.0086 22.4668 31.0196 22.3093 30.9646C22.1508 30.9106 22.0238 30.7966 21.9553 30.6531L17.7779 21.4993H19.1774L23.0698 30.1151ZM25.4997 18.9994C25.4997 19.8264 24.8267 20.4994 23.9997 20.4994H9.00021C8.17323 20.4994 7.50025 19.8264 7.50025 18.9994V13.4996V10.9997C7.50025 10.1727 8.17323 9.49972 9.00021 9.49972H23.9997C24.8267 9.49972 25.4997 10.1727 25.4997 10.9997V12.9996V16.9995V18.9994ZM30.9995 19.1569L26.4997 16.7025V13.2966L30.9995 10.8422V19.1569Z" fill="black"/>
<path d="M19.3949 12.5756C18.6004 11.8096 17.31 11.8106 16.5165 12.5756L16.5 12.5921L16.4835 12.5761C15.689 11.8101 14.3985 11.8111 13.6051 12.5761C13.2151 12.9526 13.0001 13.4545 13.0001 13.989C13.0001 14.5235 13.2151 15.0255 13.6051 15.4015L16.153 17.8589C16.2495 17.9524 16.375 17.9994 16.5 17.9994C16.625 17.9994 16.7505 17.9524 16.847 17.8594L19.3949 15.402C19.7849 15.026 19.9999 14.524 19.9999 13.9895C19.9999 13.455 19.7849 12.9526 19.3949 12.5756ZM18.7004 14.682L16.5 16.8044L14.2996 14.682C14.1066 14.496 14.0001 14.25 14.0001 13.989C14.0001 13.7275 14.1061 13.4815 14.2996 13.295C14.505 13.0971 14.7745 12.9981 15.0445 12.9981C15.314 12.9981 15.5835 13.0966 15.789 13.295L16.153 13.646C16.3465 13.8325 16.654 13.8325 16.8475 13.646L17.2115 13.295C17.6209 12.8996 18.2894 12.8986 18.7009 13.295C18.8939 13.482 18.9999 13.728 18.9999 13.989C18.9999 14.25 18.8934 14.496 18.7004 14.682Z" fill="black"/>
<path d="M22.4998 18.4995H21.4998V19.4995H22.4998V18.4995Z" fill="black"/>
<path d="M24.4997 18.4995H23.4998V19.4995H24.4997V18.4995Z" fill="black"/>
<path d="M20.4998 18.4995H19.4999V19.4995H20.4998V18.4995Z" fill="black"/>
</g>
<defs>
<clipPath id="clip0_2_820">
<rect width="32" height="32" fill="white"/>
</clipPath>
</defs>
</svg>
