<svg width="30" height="30" viewBox="0 0 30 30" fill="none" xmlns="http://www.w3.org/2000/svg">
<g clip-path="url(#clip0_2_829)">
<path d="M20.3906 20.5431C20.4844 20.5782 20.6367 20.6251 20.8125 20.6134C21.0938 20.6017 21.3516 20.4845 21.5391 20.297C21.75 20.0861 21.8555 19.8048 21.8555 19.5118C21.832 17.7423 22.957 16.1954 24.6328 15.6681C24.75 15.6329 24.8672 15.5743 24.9727 15.4923C25.207 15.3165 25.3594 15.0587 25.3945 14.7892C25.4414 14.4962 25.3711 14.2032 25.1953 13.9571C24.1406 12.5392 24.1289 10.629 25.1836 9.21105L25.3125 9.04699L25.3711 8.87121C25.4648 8.58996 25.4297 8.28527 25.3008 8.0509C25.1719 7.78137 24.9375 7.58215 24.6562 7.50012C22.9805 6.96105 21.8555 5.4259 21.8789 3.66809C21.8789 3.52746 21.8555 3.41027 21.8203 3.29309C21.7266 3.02356 21.5273 2.8009 21.2578 2.66027C21 2.54309 20.707 2.51965 20.4375 2.6134C20.0273 2.75402 19.5938 2.82434 19.1602 2.82434C17.8711 2.82434 16.6523 2.20324 15.9141 1.14856C15.832 1.04309 15.7383 0.949337 15.6563 0.890743C15.1641 0.53918 14.4844 0.656368 14.1328 1.14856C13.3828 2.20324 12.1758 2.82434 10.8867 2.82434C10.4414 2.82434 10.0195 2.75402 9.62109 2.6134C9.24609 2.48449 8.76563 2.57824 8.48438 2.87121C8.27344 3.08215 8.16797 3.3634 8.16797 3.64465C8.19141 5.41418 7.06641 6.96105 5.39063 7.47668C5.26172 7.51184 5.15625 7.57043 5.03906 7.65246C4.55859 8.01574 4.46484 8.69543 4.81641 9.18762C5.87109 10.6056 5.87109 12.5157 4.81641 13.9454C4.74609 14.0392 4.6875 14.1564 4.65234 14.2618C4.57031 14.5431 4.59375 14.8243 4.72266 15.1056C4.86328 15.3634 5.09766 15.5509 5.35547 15.6329C7.04297 16.172 8.15625 17.7189 8.13281 19.4532C8.12109 19.5939 8.14453 19.7228 8.19141 19.8517C8.28516 20.1212 8.48438 20.3439 8.75391 20.4845C9.02344 20.6017 9.30469 20.6251 9.57422 20.5314C9.99609 20.3907 10.4414 20.3204 10.875 20.3204C12.1758 20.3204 13.3477 20.9298 14.1094 21.9962C14.1797 22.09 14.2734 22.1837 14.3672 22.254C14.5547 22.3829 14.7773 22.4532 15 22.4532C15.0586 22.4532 15.1289 22.4532 15.1875 22.4415C15.4805 22.3946 15.7266 22.2306 15.8906 21.9962C16.9102 20.5782 18.7148 19.9806 20.3906 20.5431ZM14.9883 21.2931C14.0273 19.9689 12.4922 19.1837 10.8633 19.1837C10.3242 19.1837 9.77344 19.2657 9.26953 19.4415C9.26953 17.215 7.85156 15.2579 5.75391 14.59C7.06641 12.7853 7.06641 10.3829 5.76563 8.57824C7.875 7.88684 9.28125 5.95324 9.29297 3.72668C9.79688 3.89074 10.3242 3.97277 10.8633 3.97277C12.4922 3.97277 14.0391 3.18762 15 1.87512C15.9609 3.18762 17.5078 3.97277 19.1484 3.97277C19.6992 3.97277 20.2383 3.89074 20.7188 3.71496C20.7188 5.91809 22.1133 7.85168 24.2227 8.56652C22.9219 10.3712 22.9219 12.7618 24.2227 14.5782C22.1133 15.2696 20.7188 17.2032 20.707 19.4298C18.5859 18.7501 16.3125 19.4884 14.9883 21.2931Z" fill="black"/>
<path d="M19.7344 10.793C17.9414 10.043 16.5352 8.64844 15.7734 6.85547C15.6445 6.53906 15.3281 6.32812 14.9883 6.32812C14.6484 6.32812 14.332 6.53906 14.2031 6.84375C13.4414 8.625 12.0469 10.0195 10.2656 10.7813C9.94922 10.9102 9.73828 11.2148 9.73828 11.5547C9.73828 11.8945 9.9375 12.1992 10.2539 12.3398C11.9766 13.0898 13.4063 14.543 14.1914 16.3242C14.332 16.6406 14.6367 16.8398 14.9648 16.8398C15.3047 16.8398 15.6094 16.6406 15.7383 16.3242C16.4883 14.5898 17.9414 13.1484 19.7344 12.3516C20.0391 12.2109 20.2383 11.9062 20.2383 11.5664C20.25 11.2266 20.0508 10.9219 19.7344 10.793ZM14.9766 15.3047C14.1328 13.7109 12.832 12.3984 11.2852 11.5664C12.8789 10.7461 14.168 9.46875 14.9883 7.875C15.8086 9.48047 17.1094 10.7695 18.7148 11.5781C17.1094 12.4336 15.7969 13.7461 14.9766 15.3047Z" fill="black"/>
<path d="M11.5547 22.1252C11.2852 21.9494 10.9336 22.0314 10.7578 22.2892L7.6875 26.9885L6.15234 23.8361L2.95312 23.8244L6.16406 18.9025C6.33984 18.633 6.25781 18.2814 6 18.1056C5.73047 17.9299 5.37891 18.0119 5.20313 18.2697L0.832031 24.9728L5.4375 24.9845L7.54688 29.3088L11.7188 22.922C11.8945 22.6525 11.8242 22.2892 11.5547 22.1252Z" fill="black"/>
<path d="M24.7852 18.2698C24.6094 18.0002 24.2578 17.9299 23.9883 18.1057C23.7188 18.2815 23.6484 18.633 23.8242 18.9026L27.0469 23.8244L23.8359 23.8362L22.3008 26.9885L19.2305 22.2893C19.0547 22.0198 18.7031 21.9494 18.4336 22.1252C18.1641 22.301 18.0938 22.6526 18.2695 22.9221L22.4531 29.3088L24.5625 24.9846L29.168 24.9729L24.7852 18.2698Z" fill="black"/>
</g>
<defs>
<clipPath id="clip0_2_829">
<rect width="30" height="30" fill="white"/>
</clipPath>
</defs>
</svg>
