<svg width="41" height="36" viewBox="0 0 41 36" fill="none" xmlns="http://www.w3.org/2000/svg">
<path d="M13.3957 32.2703C8.00546 31.9653 3.71348 27.4838 3.71348 22.018C3.71348 16.3554 8.31996 11.7485 13.982 11.7485C16.5144 11.7485 18.946 12.6777 20.829 14.3649C23.0038 16.31 24.2514 19.0997 24.2514 22.0179C24.2514 24.4652 23.3735 26.8217 21.8072 28.6664C22.9181 29.3862 24.1934 29.8161 25.5226 29.9142C27.1223 27.5856 27.9649 24.8685 27.9649 22.0179C27.9649 18.9639 26.9981 16.0631 25.169 13.6291C23.7156 11.6943 21.7814 10.1627 19.5751 9.19951C18.3522 8.66462 17.0736 8.31283 15.7567 8.14687C18.4187 6.18731 19.4366 4.54493 19.4366 3.11245C19.4366 1.39347 18.0431 0 16.3241 0C15.3901 0 14.5529 0.411965 13.9824 1.06343C13.4119 0.411965 12.5746 0 11.6406 0C9.9216 0 8.52811 1.39347 8.52811 3.11245C8.52811 4.54516 9.54641 6.18777 12.2093 8.14774C5.33354 9.0216 0 14.9087 0 22.018C0 29.7276 6.27228 36 13.982 36C15.048 36 16.0944 35.8817 17.1132 35.6486C15.7135 34.7231 14.4564 33.5838 13.3957 32.2703Z" fill="#d5b070"/>
<path d="M26.1082 8.03601C25.0422 8.03601 23.9958 8.15431 22.9771 8.38737C24.3767 9.313 25.6337 10.4522 26.6945 11.7658C32.0848 12.0707 36.3768 16.5522 36.3768 22.018C36.3768 27.6806 31.7704 32.2874 26.1083 32.2874C23.576 32.2874 21.1444 31.3583 19.2612 29.6711C17.0865 27.7259 15.8388 24.9361 15.8388 22.018C15.8388 19.5707 16.7167 17.2141 18.2831 15.3695C17.1722 14.6497 15.8968 14.2197 14.5677 14.1217C12.968 16.4503 12.1254 19.1673 12.1254 22.0179C12.1254 25.072 13.0922 27.9728 14.9213 30.4068C16.3747 32.3416 18.3089 33.8732 20.5152 34.8364C22.2809 35.6086 24.1623 35.9999 26.1083 35.9999C33.818 35.9999 40.0902 29.7277 40.0902 22.0179C40.0902 14.3083 33.8179 8.03601 26.1082 8.03601Z" fill="#d5b070"/>
</svg>
