<svg width="268" height="50" viewBox="0 0 268 50" fill="none" xmlns="http://www.w3.org/2000/svg">
<path d="M69.6024 43.7879L58.5039 5H67.4622L73.8827 31.9508H74.2047L81.288 5H88.9584L96.0228 32.0076H96.3638L102.784 5H111.743L100.644 43.7879H92.6516L85.2653 18.428H84.9622L77.5948 43.7879H69.6024Z" fill="black"/>
<path d="M126.113 44.3561C123.12 44.3561 120.545 43.75 118.386 42.5379C116.239 41.3131 114.585 39.5833 113.423 37.3485C112.262 35.101 111.681 32.4432 111.681 29.375C111.681 26.3826 112.262 23.7563 113.423 21.4962C114.585 19.2361 116.22 17.4747 118.329 16.2121C120.45 14.9495 122.937 14.3182 125.791 14.3182C127.71 14.3182 129.497 14.6275 131.151 15.2462C132.817 15.8523 134.269 16.7677 135.507 17.9924C136.757 19.2172 137.729 20.7576 138.423 22.6136C139.118 24.4571 139.465 26.6162 139.465 29.0909V31.3068H114.901V26.3068H131.87C131.87 25.1452 131.618 24.1162 131.113 23.2197C130.608 22.3232 129.907 21.6225 129.011 21.1174C128.127 20.5997 127.098 20.3409 125.923 20.3409C124.699 20.3409 123.613 20.625 122.666 21.1932C121.731 21.7487 120.999 22.5 120.469 23.447C119.939 24.3813 119.667 25.423 119.654 26.572V31.3258C119.654 32.7652 119.92 34.0088 120.45 35.0568C120.993 36.1048 121.757 36.9129 122.742 37.4811C123.726 38.0492 124.894 38.3333 126.245 38.3333C127.142 38.3333 127.963 38.2071 128.707 37.9545C129.452 37.702 130.09 37.3232 130.62 36.8182C131.151 36.3131 131.555 35.6944 131.832 34.9621L139.295 35.4545C138.916 37.2475 138.139 38.8131 136.965 40.1515C135.803 41.4773 134.301 42.5126 132.457 43.2576C130.627 43.9899 128.512 44.3561 126.113 44.3561Z" fill="black"/>
<path d="M155.45 44.2614C153.24 44.2614 151.239 43.6932 149.446 42.5568C147.666 41.4078 146.252 39.7222 145.204 37.5C144.168 35.2652 143.651 32.5253 143.651 29.2803C143.651 25.947 144.187 23.1755 145.261 20.9659C146.334 18.7437 147.761 17.0833 149.541 15.9849C151.334 14.8737 153.297 14.3182 155.431 14.3182C157.06 14.3182 158.417 14.596 159.503 15.1515C160.601 15.6944 161.485 16.3763 162.154 17.197C162.836 18.0051 163.354 18.8005 163.707 19.5833H163.954V5H172.003V43.7879H164.048V39.1288H163.707C163.329 39.9369 162.792 40.7386 162.098 41.5341C161.416 42.3169 160.526 42.9672 159.427 43.4849C158.341 44.0025 157.016 44.2614 155.45 44.2614ZM158.007 37.8409C159.307 37.8409 160.406 37.4874 161.302 36.7803C162.211 36.0606 162.906 35.0568 163.386 33.7689C163.878 32.4811 164.124 30.9722 164.124 29.2424C164.124 27.5126 163.884 26.0101 163.404 24.7348C162.925 23.4596 162.23 22.4747 161.321 21.7803C160.412 21.0859 159.307 20.7386 158.007 20.7386C156.681 20.7386 155.564 21.0985 154.654 21.8182C153.745 22.5379 153.057 23.5354 152.59 24.8106C152.123 26.0859 151.889 27.5631 151.889 29.2424C151.889 30.9343 152.123 32.4306 152.59 33.7311C153.07 35.0189 153.758 36.029 154.654 36.7614C155.564 37.4811 156.681 37.8409 158.007 37.8409Z" fill="black"/>
<path d="M202.841 22.9924L195.455 23.447C195.328 22.8157 195.057 22.2475 194.64 21.7424C194.224 21.2247 193.674 20.8144 192.993 20.5114C192.323 20.1957 191.522 20.0379 190.587 20.0379C189.337 20.0379 188.283 20.303 187.424 20.8333C186.566 21.351 186.136 22.0455 186.136 22.9167C186.136 23.6111 186.414 24.1982 186.97 24.678C187.525 25.1578 188.479 25.5429 189.83 25.8333L195.095 26.8939C197.923 27.4747 200.032 28.4091 201.421 29.697C202.809 30.9849 203.504 32.6768 203.504 34.7727C203.504 36.6793 202.942 38.3523 201.818 39.7917C200.707 41.2311 199.179 42.3548 197.235 43.1629C195.303 43.9583 193.075 44.3561 190.549 44.3561C186.698 44.3561 183.63 43.5543 181.345 41.9508C179.072 40.3346 177.74 38.1376 177.349 35.3599L185.284 34.9432C185.524 36.1174 186.105 37.0139 187.027 37.6326C187.948 38.2386 189.129 38.5417 190.568 38.5417C191.982 38.5417 193.119 38.2702 193.977 37.7273C194.849 37.1717 195.291 36.4583 195.303 35.5871C195.291 34.8548 194.981 34.2551 194.375 33.7879C193.769 33.3081 192.835 32.9419 191.572 32.6894L186.534 31.6856C183.693 31.1174 181.578 30.1326 180.189 28.7311C178.813 27.3295 178.125 25.5429 178.125 23.3712C178.125 21.5025 178.63 19.8927 179.64 18.5417C180.663 17.1907 182.096 16.149 183.939 15.4167C185.796 14.6843 187.967 14.3182 190.455 14.3182C194.129 14.3182 197.02 15.0947 199.129 16.6477C201.25 18.2008 202.487 20.3157 202.841 22.9924Z" fill="black"/>
<path d="M221.728 44.3561C218.749 44.3561 216.185 43.7248 214.039 42.4621C211.905 41.1869 210.264 39.4192 209.115 37.1591C207.978 34.899 207.41 32.298 207.41 29.3561C207.41 26.3763 207.985 23.7626 209.134 21.5152C210.295 19.2551 211.943 17.4937 214.077 16.2311C216.211 14.9558 218.749 14.3182 221.69 14.3182C224.228 14.3182 226.451 14.779 228.357 15.7008C230.264 16.6225 231.773 17.9167 232.884 19.5833C233.995 21.25 234.607 23.2071 234.721 25.4545H227.107C226.892 24.0025 226.324 22.8346 225.403 21.9508C224.493 21.0543 223.3 20.6061 221.823 20.6061C220.573 20.6061 219.481 20.947 218.547 21.6288C217.625 22.298 216.905 23.2765 216.387 24.5644C215.87 25.8523 215.611 27.4116 215.611 29.2424C215.611 31.0985 215.863 32.6768 216.368 33.9773C216.886 35.2778 217.612 36.2689 218.547 36.9508C219.481 37.6326 220.573 37.9735 221.823 37.9735C222.745 37.9735 223.572 37.7841 224.304 37.4053C225.049 37.0265 225.661 36.4773 226.141 35.7576C226.634 35.0253 226.956 34.1477 227.107 33.125H234.721C234.594 35.3472 233.988 37.3043 232.903 38.9962C231.829 40.6755 230.346 41.9886 228.452 42.9356C226.558 43.8826 224.317 44.3561 221.728 44.3561Z" fill="black"/>
<path d="M253.03 44.3561C250.088 44.3561 247.544 43.7311 245.398 42.4811C243.264 41.2184 241.616 39.4634 240.455 37.2159C239.293 34.9558 238.712 32.3359 238.712 29.3561C238.712 26.351 239.293 23.7247 240.455 21.4773C241.616 19.2172 243.264 17.4621 245.398 16.2121C247.544 14.9495 250.088 14.3182 253.03 14.3182C255.972 14.3182 258.51 14.9495 260.644 16.2121C262.79 17.4621 264.445 19.2172 265.606 21.4773C266.768 23.7247 267.349 26.351 267.349 29.3561C267.349 32.3359 266.768 34.9558 265.606 37.2159C264.445 39.4634 262.79 41.2184 260.644 42.4811C258.51 43.7311 255.972 44.3561 253.03 44.3561ZM253.068 38.1061C254.407 38.1061 255.524 37.7273 256.421 36.9697C257.317 36.1995 257.993 35.1515 258.447 33.8258C258.914 32.5 259.148 30.9912 259.148 29.2992C259.148 27.6073 258.914 26.0985 258.447 24.7727C257.993 23.447 257.317 22.399 256.421 21.6288C255.524 20.8586 254.407 20.4735 253.068 20.4735C251.717 20.4735 250.581 20.8586 249.659 21.6288C248.75 22.399 248.062 23.447 247.595 24.7727C247.14 26.0985 246.913 27.6073 246.913 29.2992C246.913 30.9912 247.14 32.5 247.595 33.8258C248.062 35.1515 248.75 36.1995 249.659 36.9697C250.581 37.7273 251.717 38.1061 253.068 38.1061Z" fill="black"/>
<path d="M18.6052 44.8199C11.1187 44.3963 5.15761 38.1719 5.15761 30.5805C5.15761 22.7158 11.5555 16.3174 19.4195 16.3174C22.9366 16.3174 26.3139 17.6079 28.9292 19.9512C31.9497 22.6528 33.6825 26.5274 33.6825 30.5804C33.6825 33.9794 32.4632 37.2524 30.2878 39.8144C31.8307 40.8141 33.602 41.4113 35.4481 41.5475C37.6698 38.3133 38.8401 34.5396 38.8401 30.5804C38.8401 26.3387 37.4973 22.3098 34.957 18.9293C32.9384 16.2421 30.2519 14.1148 27.1876 12.7771C25.4892 12.0342 23.7134 11.5456 21.8843 11.3151C25.5815 8.59348 26.9953 6.3124 26.9953 4.32284C26.9953 1.93538 25.0599 0 22.6724 0C21.3751 0 20.2123 0.572173 19.42 1.47699C18.6276 0.572173 17.4647 0 16.1675 0C13.78 0 11.8446 1.93538 11.8446 4.32284C11.8446 6.31272 13.2589 8.59413 16.9573 11.3163C7.40769 12.53 0 20.7065 0 30.5805C0 41.2884 8.7115 50 19.4195 50C20.9 50 22.3534 49.8357 23.7683 49.5119C21.8243 48.2265 20.0784 46.6442 18.6052 44.8199Z" fill="#d5b070"/>
<path d="M36.2614 11.1611C34.7808 11.1611 33.3275 11.3254 31.9126 11.6491C33.8566 12.9347 35.6024 14.5169 37.0757 16.3413C44.5623 16.7648 50.5233 22.9892 50.5233 30.5805C50.5233 38.4452 44.1255 44.8436 36.2615 44.8436C32.7445 44.8436 29.3672 43.5531 26.7517 41.2098C23.7313 38.5081 21.9984 34.6335 21.9984 30.5805C21.9984 27.1815 23.2177 23.9084 25.3932 21.3465C23.8503 20.3468 22.0789 19.7496 20.2329 19.6134C18.0111 22.8476 16.8408 26.6212 16.8408 30.5804C16.8408 34.8222 18.1836 38.8511 20.7241 42.2317C22.7426 44.9188 25.4291 47.0461 28.4934 48.3838C30.9457 49.4564 33.5588 49.9999 36.2615 49.9999C46.9694 49.9999 55.6809 41.2884 55.6809 30.5804C55.6808 19.8726 46.9693 11.1611 36.2614 11.1611Z" fill="#d5b070"/>
</svg>
